<?xml version="1.0" standalone="no"?>
<!DOCTYPE svg PUBLIC "-//W3C//DTD SVG 20010904//EN"
 "http://www.w3.org/TR/2001/REC-SVG-20010904/DTD/svg10.dtd">
<svg version="1.0" xmlns="http://www.w3.org/2000/svg"
 width="612.000000pt" height="612.000000pt" viewBox="0 0 612.000000 612.000000"
 preserveAspectRatio="xMidYMid meet">
<metadata>
Created by potrace 1.11, written by Peter Selinger 2001-2013
</metadata>
<g transform="translate(0.000000,612.000000) scale(0.100000,-0.100000)"
fill="#000000" stroke="none">
<path d="M2896 5905 c-412 -86 -703 -414 -733 -825 -10 -146 28 -337 94 -463
19 -38 19 -41 2 -120 -28 -128 -67 -395 -86 -587 -13 -133 -17 -268 -18 -560
0 -392 9 -568 44 -818 11 -78 15 -129 9 -133 -6 -4 -37 -9 -71 -12 -275 -27
-578 -208 -750 -448 -251 -353 -271 -834 -49 -1204 354 -591 1176 -714 1679
-252 l43 39 51 -46 c289 -260 718 -345 1085 -215 170 60 296 139 421 265 397
399 429 1023 76 1464 -172 214 -454 372 -710 397 -34 3 -65 8 -71 12 -5 4 -4
39 3 91 39 262 50 444 49 845 0 488 -20 729 -96 1127 l-22 116 26 59 c66 148
95 298 85 443 -27 377 -287 698 -652 805 -113 33 -301 43 -409 20z"/>
</g>
</svg>
